<?xml version="1.0" standalone="no"?>
<!DOCTYPE svg PUBLIC "-//W3C//DTD SVG 20010904//EN"
 "http://www.w3.org/TR/2001/REC-SVG-20010904/DTD/svg10.dtd">
<svg version="1.0" xmlns="http://www.w3.org/2000/svg"
 width="512.000000pt" height="512.000000pt" viewBox="0 0 512.000000 512.000000"
 preserveAspectRatio="xMidYMid meet">
<metadata>
Created by potrace 1.11, written by Peter Selinger 2001-2013
</metadata>
<g transform="translate(0.000000,512.000000) scale(0.100000,-0.100000)"
fill="#000000" stroke="none">
<path d="M1567 4093 c-3 -10 -38 -190 -78 -400 l-73 -383 -333 0 -333 0 0
-165 0 -165 300 0 300 0 -5 -22 c-2 -13 -32 -167 -65 -343 -33 -176 -65 -344
-71 -372 l-10 -53 -225 0 -224 0 0 -160 0 -160 195 0 195 0 -5 -22 c-15 -65
-145 -752 -145 -769 0 -19 6 -19 182 -17 l183 3 77 400 c42 220 77 401 77 403
1 1 161 2 357 2 l356 0 -6 -27 c-17 -74 -146 -759 -146 -770 0 -10 39 -13 183
-13 l183 0 68 358 c37 196 72 378 78 405 l10 47 334 0 334 0 0 160 0 160 -305
0 -305 0 5 23 c6 25 145 757 145 763 0 2 102 5 228 6 l227 3 0 160 0 160 -192
3 c-106 1 -193 4 -193 6 0 2 34 180 75 395 41 216 75 394 75 397 0 2 -83 4
-184 4 l-185 0 -10 -52 c-19 -91 -141 -736 -141 -742 0 -3 -160 -6 -355 -6
-252 0 -355 3 -355 11 0 11 134 719 145 767 l5 22 -184 0 c-167 0 -185 -2
-189 -17z m863 -1128 c0 -16 -137 -728 -146 -757 -5 -17 -31 -18 -361 -18
-333 0 -355 1 -351 18 3 9 38 187 78 395 l74 377 353 0 c306 0 353 -2 353 -15z"/>
<path d="M3860 3537 c0 -315 5 -644 10 -732 14 -209 55 -624 76 -758 l6 -38
126 3 127 3 12 95 c64 500 83 852 83 1513 l0 487 -220 0 -220 0 0 -573z"/>
<path d="M4025 1589 c-161 -20 -267 -176 -235 -346 19 -105 100 -199 192 -224
67 -18 161 -13 218 12 64 28 133 103 155 170 36 106 6 234 -71 312 -64 63
-153 90 -259 76z"/>
</g>
</svg>
